<svg width="288" height="288" viewBox="0 0 288 288" fill="none" xmlns="http://www.w3.org/2000/svg">
<path fill-rule="evenodd" clip-rule="evenodd" d="M288 287.322H151.664H0V0H288V287.322Z" fill="#EA580C"/>
<path d="M0 203.972H288V288H144H0V203.972Z" fill="white"/>
<path fill-rule="evenodd" clip-rule="evenodd" d="M163.531 47.3014L164.146 40.3831C166.907 37.2678 168.426 31.964 168.7 27.3082C169.587 21.055 168.779 15.8762 164.875 12.687C159.114 8.05968 149.131 6.72376 142.295 15.9273C133.125 16.6152 132.112 21.4643 141.486 23.4426C141.356 24.011 141.839 24.4033 141.811 24.8922C141.116 26.518 141.452 27.6777 141.731 29.6446C141.27 31.8275 141.008 36.7164 143.752 39.7179L141.777 45.1128C139.95 46.2497 134.144 45.3913 126.83 45.9427C118.218 46.8182 109.384 53.7365 105.679 63.7018C99.7254 71.5902 96.1884 81.0324 95.4957 90.8862C97.7212 99.0836 109.088 105.217 122.088 111.92C116.396 122.152 111.029 130.219 112.731 148.006C112.162 153.094 104.984 176.692 84.4818 205.269C82.1368 207.093 78.5224 207.264 76.9059 215.257L58.4413 213.637L34.0799 220.35L22.2691 266.698L99.9297 284.321L136.438 268.824L130.461 222.402L109.93 218.872L124.268 210.089L135.652 195.406L157.145 148.825C164.954 152.628 172.729 158.489 181.683 161.985C173.299 196.048 171.551 212.659 169.28 221.641C168.438 225.518 169.28 231.441 170.948 233.965C173.891 235.307 177.209 235.466 184.398 234.937L185.929 233.55L190.71 235.216C198.759 236.436 206.158 236.436 212.909 235.216C217.696 233.772 217.826 227.257 212.909 225.592C205.748 224.038 200.436 221.675 196.971 218.503C196.971 218.503 202.515 194.706 207.82 161.087C208.867 154.731 207.615 150.104 204.877 146.403C197.37 139.707 185.206 125.938 165.074 111.692C168.301 104.427 174.796 90.7441 176.537 79.7669C181.091 82.5638 187.591 82.6092 192.441 83.4506L206.625 68.1018C198.901 62.2693 192.793 62.2295 187.75 59.0404C182.434 53.7535 174.796 49.4161 163.531 47.3014Z" fill="#333333"/>
<path fill-rule="evenodd" clip-rule="evenodd" d="M202.697 66.0951C209.334 67.6925 216.705 72.0584 217.4 80.3467C213.529 90.6304 205.156 94.0356 197.808 101.733L195.138 113.574L190.016 117.155C188.399 117.193 187.278 116.867 186.652 116.178C185.134 116.143 183.996 115.812 183.237 115.183C181.434 115.24 180.18 114.876 179.474 114.091C176.864 113.769 175.433 113.091 175.183 112.056L173.834 109.418L170.788 103.734C171.874 101.075 173.312 98.5745 175.063 96.2981C178.182 95.2578 183.174 95.5875 186.299 94.5472L193.129 80.6082L202.697 66.0951Z" fill="#333333"/>
<path d="M191.57 100.903C204.302 101.375 210.108 109.481 209.294 120.453C208.566 130.316 202.675 142.668 193.795 154.942C175.917 179.653 144.002 206.673 107.887 216.235L105.525 207.366C139.102 198.481 169.371 173.025 186.344 149.592C190.329 144.067 212.436 110.879 191.222 110.095L191.57 100.903Z" fill="#333333"/>
<path fill-rule="evenodd" clip-rule="evenodd" d="M162.268 24.0281C151.584 24.2839 148.118 24.0281 143.701 23.7154C143.484 24.2839 143.701 23.8689 143.883 24.6761C143.172 26.3985 143.101 28.3181 143.683 30.088C142.801 32.7314 143.422 33.8626 144.145 37.1939C144.611 39.337 146.552 38.4786 149.962 38.4388C155.779 38.3706 157.993 41.7701 162.051 37.3019C161.254 42.3443 155.164 43.6802 150.303 43.5267C147.548 43.5267 146.991 48.228 148.459 54.0207C152.301 56.6357 157.913 55.7773 161.596 51.4967L162.837 36.6482C166.297 39.1494 168.529 22.2089 163.326 29.9629L161.937 29.1443C162.064 28.2347 161.862 27.3098 161.368 26.535C161.837 25.7696 162.143 24.9163 162.268 24.0281Z" fill="white"/>
<path fill-rule="evenodd" clip-rule="evenodd" d="M161.761 21.9361C150.992 25.8018 148.63 17.9227 137.178 19.8669C137.866 18.4457 140.815 17.3827 145.357 17.6612C153.001 18.3206 159.331 19.3837 161.761 21.9361Z" fill="white"/>
<path fill-rule="evenodd" clip-rule="evenodd" d="M144.896 16.6038C147.457 11.931 156.405 8.07674 164.818 15.0519C167.572 17.9909 167.715 21.9645 167.055 25.58C164.641 18.8436 152.791 16.1775 144.896 16.6038Z" fill="white"/>
<path fill-rule="evenodd" clip-rule="evenodd" d="M140.559 48.4781C140.559 48.4781 132.653 48.2678 128.759 48.6771C120.711 50.0812 114.529 53.2874 108.581 64.2646C104.352 71.6548 105.508 69.0796 101.751 77.8454C106.128 74.5994 125.617 75.2191 124.285 82.524C127.057 77.0723 128.053 62.8093 127.496 58.3866C132.089 61.8713 129.903 77.1178 137.804 83.911C134.925 83.4035 132.284 81.9891 130.268 79.8749C130.142 83.371 129.636 88.8113 129.852 92.1766L145.938 109.742C159.515 105.574 168.053 98.0679 171.551 87.2252L168.608 85.6449C173.885 82.7059 176.924 73.7354 177.807 63.4744L179.4 75.1111C180.539 76.5323 184.654 78.3116 189.834 79.801C190.272 73.1271 197.529 69.324 199.646 66.4077C197.04 64.763 193.533 63.5218 189.128 62.6843C179.804 54.9075 171.961 50.3939 164.499 50.2176C161.032 62.616 144.737 58.3297 140.559 48.4781Z" fill="white"/>
<path fill-rule="evenodd" clip-rule="evenodd" d="M158.317 132.061C156.785 133.237 155.676 134.879 155.158 136.739C152.546 135.545 151.533 133.482 153.2 131.737L158.317 132.061Z" fill="white"/>
<path fill-rule="evenodd" clip-rule="evenodd" d="M158.317 129.781L149.825 130.213L151.032 124.995L160.936 123.579C162.123 123.299 163.213 123.733 164.203 124.881L171.602 140.434L168.011 145.551L160.714 130.975C160.281 130.251 159.482 129.853 158.317 129.781Z" fill="white"/>
<path fill-rule="evenodd" clip-rule="evenodd" d="M120.301 128.104L122.401 127.485L121.326 131.85L118.998 132.561L120.301 128.104Z" fill="white"/>
<path fill-rule="evenodd" clip-rule="evenodd" d="M202.276 67.8517C208.241 69.9608 213.632 72.6269 215.59 79.4656C212.863 85.7188 206.334 91.4718 195.924 99.7601L193.687 113.301L190.431 115.763C189.622 115.792 188.819 115.607 188.103 115.228L191.45 112.454V108.418C191.287 107.933 191.002 107.825 190.596 108.094L190.272 112.13L186.481 114.916C185.388 114.798 184.722 114.499 184.483 114.017L187.585 111.505L187.91 107.264C187.747 106.608 187.434 106.487 186.971 106.9L186.532 111.101L183.214 113.779C181.476 113.623 180.717 113.297 180.937 112.801L184.284 109.959L184.449 105.064C184.233 104.473 183.931 104.378 183.544 104.78L183.464 109.328L179.668 112.221C178.123 112.032 177.198 111.653 176.89 111.084L180.237 107.741L179.617 102.875C179.032 101.738 178.228 101.24 177.203 101.38L173.122 102.875C173.735 100.948 174.769 99.1812 176.15 97.7022C178.302 97.0883 185.479 97.4407 186.965 96.7358L194.78 82.2284L198.798 76.8052C196.995 77.4971 195.447 78.7254 194.364 80.324L192.401 79.7555C192.042 75.2078 197.108 71.5695 202.276 67.8517Z" fill="white"/>
<path fill-rule="evenodd" clip-rule="evenodd" d="M176.771 101.937C168.354 103.692 163.801 106.923 163.11 111.63L170.401 118.144C172.058 113.597 172.752 113.597 176.441 111.789L176.771 101.937Z" fill="#333333"/>
<path fill-rule="evenodd" clip-rule="evenodd" d="M155.25 145.175L131.588 196.236C128.932 201.682 125.836 205.443 122.299 207.52L106.982 213.159C107.46 207.185 105.69 203.995 100.362 202.296L113.71 198.242C116.282 196.813 118.408 194.7 119.851 192.137L143.513 140.929C148.88 138.365 154.663 140.099 155.25 145.175Z" fill="white"/>
<path fill-rule="evenodd" clip-rule="evenodd" d="M93.5605 204.734C86.0054 205.826 80.7954 211.084 77.9305 220.509C82.7534 224.061 88.6351 224.676 95.5754 222.357L96.839 216.82L103.561 213.381C104.142 208.337 100.808 205.454 93.5605 204.734Z" fill="white"/>
<path fill-rule="evenodd" clip-rule="evenodd" d="M126.892 224.188L107.927 230.304L41.3029 221.999L104.483 227.871L114.643 221.999L126.892 224.188Z" fill="white"/>
<path fill-rule="evenodd" clip-rule="evenodd" d="M105.155 236.347L97.0041 280.734L27.4374 264.288L35.9241 225.944L105.155 236.347Z" fill="white"/>
<path fill-rule="evenodd" clip-rule="evenodd" d="M176.737 103.114C169.257 104.683 162.182 110.368 158.653 115.984L162.7 121.908C166.77 116.166 171.454 111.067 176.145 109.589C176.97 107.815 178.581 104.387 176.737 103.114Z" fill="white"/>
<path fill-rule="evenodd" clip-rule="evenodd" d="M197.626 104.331L197.057 107.27C205.784 111.078 206.879 119.736 200.341 133.243L202.953 134.812C209.898 118.546 208.122 108.386 197.626 104.331Z" fill="white"/>
<path fill-rule="evenodd" clip-rule="evenodd" d="M151.601 145.011L128.264 197.691C123.87 204.803 118.206 205.65 106.225 210.044L105.161 206.065C105.161 206.065 121.952 202.705 125.082 197.253C127.416 192.41 149.245 143.118 149.245 143.118L151.601 145.011Z" fill="#333333"/>
<path fill-rule="evenodd" clip-rule="evenodd" d="M100.567 208.714L91.278 214.273L88.4946 220.146L81.9888 220.612C85.92 222.162 89.0695 222.37 91.4374 221.237L94.5338 215.206L101.478 211.641L100.567 208.714Z" fill="#333333"/>
<path fill-rule="evenodd" clip-rule="evenodd" d="M165.922 145.295L156.587 145.551L158.881 141.031L164.248 140.645L165.922 145.295Z" fill="white"/>
<path fill-rule="evenodd" clip-rule="evenodd" d="M151.333 26.6488C150.544 26.8507 149.716 26.8507 148.926 26.6488C148.47 27.5526 148.624 28.3826 147.742 29.0875C148.933 29.0079 149.762 29.1747 150.229 29.5878C151.516 28.9397 153.03 29.2865 153.644 28.7862C152.707 28.2778 151.913 27.5429 151.333 26.6488Z" fill="#333333"/>
<path fill-rule="evenodd" clip-rule="evenodd" d="M154.811 32.072L151.396 30.719L150.258 31.0715L149.119 30.6906L146.729 32.0777L146.376 31.7252L146.177 32.8622L148.766 31.8617C149.787 32.1982 150.888 32.1982 151.908 31.8617C153.18 32.064 154.381 32.5798 155.403 33.3624L155.101 31.8105L154.811 32.072Z" fill="#333333"/>
<path fill-rule="evenodd" clip-rule="evenodd" d="M153.576 33.658C151.656 33.918 149.71 33.9065 147.793 33.6239L147.44 34.8575C149.725 34.3408 152.104 34.4093 154.356 35.0565L153.576 33.658Z" fill="#333333"/>
<path fill-rule="evenodd" clip-rule="evenodd" d="M143.803 24.4658L144.941 23.2663C146.168 23.08 147.419 23.1477 148.618 23.4653V24.2669L146.603 25.6653L145.015 24.733L143.803 24.4658Z" fill="#333333"/>
<path fill-rule="evenodd" clip-rule="evenodd" d="M152.956 23.7496L152.756 25.0969C153.257 25.7904 153.895 24.1702 155.506 25.9837L158.061 25.4152L158.488 24.8467L157.503 23.8633L153.809 23.0106L152.956 23.7496Z" fill="#333333"/>
<path fill-rule="evenodd" clip-rule="evenodd" d="M154.885 41.1676C150.753 39.5569 148.03 39.5569 146.717 41.1676C149.279 41.5428 151.635 40.9231 154.885 41.1676Z" fill="white"/>
<path fill-rule="evenodd" clip-rule="evenodd" d="M120.705 134.431L129.972 146.443L137.013 146L138.72 141.992H133.375L131.065 144.3L131.776 141.458L130.347 139.502C128.784 139.843 125.57 138.153 120.705 134.431Z" fill="white"/>
<path d="M120.922 85.9632L145.465 112.897L155.756 116.621L158.443 121.84C155.927 121.684 154.344 121.756 153.696 122.056L152.295 120.668C150.649 120.782 149.7 120.932 149.449 121.118L147.212 127.371L150.201 133.482C149.651 134.805 148.209 135.301 145.875 134.971C143.541 130.509 142.095 130.06 141.247 128.263L142.619 122.459C142.24 121.595 141.593 121.745 140.678 122.908L139.483 127.826L144.327 134.812C144.537 136.444 141.936 137.45 139.301 136.279L134.747 129.736L135.942 123.323C135.51 122.683 135.098 122.829 134.707 123.761L132.806 129.446L137.474 136.034C137.041 137.382 135.197 138.166 133.284 137.041L128.628 130.787L130.097 124.295C130.013 123.643 129.552 123.672 128.714 124.381L127.092 130.361L131.019 136.222C130.825 137.563 129.541 137.704 127.166 136.643L123.267 130.958L125.196 122.59L130.524 114.864L135.749 113.227C133.188 112.403 132.431 112.539 128.964 112.46C119.39 108.691 101.825 97.0484 99.0816 90.6076C99.0816 90.6076 100.357 82.9673 102.024 80.1363C107.09 76.879 114.917 77.9136 120.996 80.7048C121.411 82.0521 121.343 82.6888 120.922 85.9632Z" fill="white"/>
<path fill-rule="evenodd" clip-rule="evenodd" d="M124.809 88.2258L115.554 85.2356C116.286 84.5118 118.926 84.5933 123.471 85.4801L124.809 88.2258Z" fill="#333333"/>
<path fill-rule="evenodd" clip-rule="evenodd" d="M178.046 165.618C171.064 173.576 158.566 184.345 140.553 197.924C159.386 185.649 171.883 176.17 178.046 169.489V165.618Z" fill="white"/>
</svg>
